<?xml version="1.0" encoding="utf-8"?>
<!-- Generator: Adobe Illustrator 16.0.0, SVG Export Plug-In . SVG Version: 6.00 Build 0)  -->
<!DOCTYPE svg PUBLIC "-//W3C//DTD SVG 1.1//EN" "http://www.w3.org/Graphics/SVG/1.1/DTD/svg11.dtd">
<svg version="1.1" id="Layer_1" xmlns="http://www.w3.org/2000/svg" xmlns:xlink="http://www.w3.org/1999/xlink" x="0px" y="0px"
	 width="40px" height="40px" viewBox="0 0 40 40" enable-background="new 0 0 40 40" xml:space="preserve">
<g>
	<path id="N_stroke_2_" fill="#186BB7" d="M25.57,3.452l-4.133,8.719c-0.16-0.19-0.199-0.295-0.379-0.47
		c-0.645-0.647-1.383-1.152-2.226-1.518c-0.834-0.365-1.732-0.55-2.67-0.55c-1.384,0-2.637,0.367-3.777,1.098
		c-1.14,0.731-1.988,1.721-2.549,2.967L2.139,30.812l12.342,5.735l4.128-8.69c0.16,0.201,0.157,0.289,0.345,0.473
		c0.645,0.646,1.399,1.152,2.255,1.515c0.863,0.37,1.764,0.552,2.711,0.552c1.375,0,2.613-0.375,3.71-1.129
		c1.101-0.752,1.944-1.752,2.55-2.998l7.682-17.105L25.57,3.452z"/>
</g>
</svg>
