<?xml version="1.0" encoding="utf-8"?>
<!-- Generator: Adobe Illustrator 18.1.1, SVG Export Plug-In . SVG Version: 6.00 Build 0)  -->
<svg version="1.1" id="Namely__x2B__Grad_copy_2" xmlns="http://www.w3.org/2000/svg" xmlns:xlink="http://www.w3.org/1999/xlink"
	 x="0px" y="0px" viewBox="0 0 355.3 119.7" enable-background="new 0 0 355.3 119.7" xml:space="preserve">
<g>
	<g>
		<path fill="#FFFFFF" d="M52.8,98h-7.7c-1.6,0-2.8-0.3-4.1-2.4L23.3,64.7c-0.3-0.5-0.5-0.6-0.7-0.6s-0.4,0.2-0.4,0.6v31.7
			c0,0.9-0.7,1.6-1.6,1.6h-9.2c-0.9,0-1.6-0.7-1.6-1.6V42.8c0-1.6,1.3-3,3-3h7.9c1.6,0,2.3,0.8,3.3,2.4l18.5,32.2
			c0.3,0.5,0.4,0.6,0.6,0.6c0.2,0,0.4-0.2,0.4-0.7V41.4c0-0.9,0.7-1.5,1.6-1.5h9.2c0.9,0,1.6,0.6,1.6,1.5V95
			C55.9,96.6,54.5,98,52.8,98z"/>
		<path fill="#FFFFFF" d="M98.2,98h-8.8c-0.9,0-1.6-0.7-1.6-1.6v-1.3c-3,2.2-6.2,3.5-10.9,3.5c-6.8,0-13.4-3.3-13.4-13.4v-0.7
			c0-9.1,5.9-13.2,19.2-13.2h4.2v-2.8c0-4.5-2.2-5.4-5.9-5.4c-5,0-10.6,0.3-13,0.5h-0.4c-0.8,0-1.4-0.4-1.4-1.4v-6.3
			c0-0.9,0.5-1.5,1.5-1.7c2.9-0.7,8.4-1.6,13.5-1.6c11.3,0,18.3,4.5,18.3,15.9v27.9C99.8,97.3,99.1,98,98.2,98z M87.4,78.8h-4.5
			c-5.5,0-6.9,1.9-6.9,5.7v0.7c0,3.3,1.6,3.9,4.9,3.9c2.3,0,4.5-0.8,6.4-1.7V78.8z"/>
		<path fill="#FFFFFF" d="M165.8,98h-9.5c-0.9,0-1.6-0.8-1.6-1.6V69.7c0-5-1.2-6.5-4.8-6.5c-1.3,0-3.7,0.3-6,1.4
			c0.2,1.6,0.2,3.4,0.2,5.1v26.7c0,0.9-0.7,1.6-1.6,1.6h-9.5c-0.9,0-1.6-0.8-1.6-1.6V69.7c0-5-0.9-6.5-4.5-6.5c-1.5,0-3.5,0.8-5.9,2
			v31.1c0,0.9-0.7,1.6-1.6,1.6H110c-0.9,0-1.6-0.8-1.6-1.6V54.7c0-0.9,0.7-1.6,1.6-1.6h8.9c0.9,0,1.6,0.7,1.6,1.6v1.7
			c3.3-2.2,7-3.9,11.6-3.9c4.1,0,7,1.2,9.2,3.8c4.5-2.6,7.7-3.8,12.7-3.8c10.3,0,13.4,6.9,13.4,17.1v26.7
			C167.4,97.2,166.6,98,165.8,98z"/>
		<path fill="#FFFFFF" d="M212.3,79.5h-24.9v0.2c0,4.5,1.9,8.5,8.1,8.5c4.9,0,11.9-0.4,15-0.7c0.1,0,0.2,0,0.2,0
			c0.9,0,1.5,0.4,1.5,1.2v5.9c0,1.3-0.3,1.8-1.6,2.1c-5,1.3-9.2,1.9-16,1.9c-9.5,0-19.6-5-19.6-20.1v-5.5c0-12.6,7.3-20.6,19.8-20.6
			c12.8,0,19.3,8.8,19.3,20.6v4.5C213.9,78.8,213.3,79.5,212.3,79.5z M201.6,71.4c0-5.8-2.7-8.7-7-8.7c-4.3,0-7.2,3-7.2,8.7v0.3
			h14.2V71.4z"/>
		<path fill="#FFFFFF" d="M232.5,98H223c-0.9,0-1.6-0.8-1.6-1.6V39.6c0-0.9,0.8-1.6,1.6-1.6h9.5c0.9,0,1.5,0.7,1.5,1.6v56.8
			C234,97.2,233.4,98,232.5,98z"/>
		<path fill="#FFFFFF" d="M282.4,55l-13.1,46c-2.4,8.4-5.6,12.7-17.1,12.7c-2.9,0-7.5-0.6-9.5-1.2c-0.9-0.3-1.6-0.5-1.6-1.4v-6.3
			c0-0.9,0.7-1.5,1.6-1.5c0.1,0,0.1,0,0.2,0c2.6,0.2,7.2,0.6,9.8,0.6c2.8,0,4.2-0.9,5.2-4.1l0.7-2.4h-1.2c-2.9,0-5.3-0.5-7.3-7.3
			L239.6,55c-0.1-0.2-0.1-0.4-0.1-0.5c0-0.8,0.5-1.3,1.6-1.3h10.4c0.8,0,1.3,0.7,1.5,1.5l7,29.4c0.2,1.1,0.5,1.5,0.9,1.5h0.1
			c0.2,0,0.2,0,0.3,0c0.2,0,0.3,0,0.3,0l7.3-30.9c0.2-0.8,0.8-1.5,1.6-1.5H281c0.8,0,1.5,0.6,1.5,1.4
			C282.5,54.7,282.4,54.8,282.4,55z"/>
	</g>
</g>
<line display="none" fill="none" stroke="#656565" stroke-width="0.5" stroke-miterlimit="10" x1="9.8" y1="0" x2="350.2" y2="0"/>
<path fill="#0076BF" d="M345.3,16l-16.7-7.7L323.1,20c-1.7-2.2-4.3-3.6-7.3-3.6c-3.6,0-6.6,2-8.2,5c-0.1,0.2-0.2,0.5-0.4,0.7
	l-10.4,23.2l16.7,7.8l5.6-11.8c0.4,0.5,0.9,1,1.4,1.4c0.2,0.2,0.4,0.3,0.6,0.4c1.5,1,3.3,1.6,5.2,1.6c3.2,0,6-1.6,7.6-4.1
	c0.3-0.5,0.6-1,0.9-1.5L345.3,16z"/>
</svg>
